<?xml version="1.0" encoding="UTF-8"?>
<svg width="129px" height="118px" viewBox="0 0 129 118" version="1.1" xmlns="http://www.w3.org/2000/svg" xmlns:xlink="http://www.w3.org/1999/xlink">
    <title>􀟮</title>
    <g id="Website" stroke="none" stroke-width="1" fill="none" fill-rule="evenodd">
        <g id="Home" transform="translate(-1216, -2289)" fill="#000000" fill-rule="nonzero">
            <g id="􀟮" transform="translate(1216.7417, 2289.6611)">
                <path d="M16.1103056,39.9502848 L1.95014933,36.9565103 C1.30063354,36.83444 0.793660273,36.5034515 0.429229527,35.9635446 C0.0647987819,35.4236378 -0.0675712133,34.8286722 0.032119542,34.1786478 C0.10943074,33.5052266 0.437367548,32.9725677 1.01592997,32.5806711 C1.59449239,32.1887745 2.23701456,32.0701375 2.9434965,32.2247599 L17.0548246,35.2521036 C17.7165474,35.4062174 18.2265725,35.7562794 18.5848997,36.3022898 C18.9432269,36.8483001 19.0562691,37.4409769 18.9240263,38.0803202 C18.8024646,38.7425516 18.4605406,39.2501607 17.8982542,39.6031473 C17.3359678,39.956134 16.7399849,40.0718464 16.1103056,39.9502848 Z M21.2113188,24.044523 L11.0062406,13.8394449 C10.4884591,13.3216633 10.2377063,12.7455169 10.2539823,12.1110056 C10.2702584,11.4764943 10.5210111,10.9166239 11.0062406,10.4313944 C11.4812976,9.94616489 12.0440926,9.69808241 12.6946256,9.68714694 C13.3451587,9.67621148 13.91304,9.92429395 14.3982694,10.4313944 L24.6521757,20.6364725 C25.1048531,21.121702 25.3311918,21.6978484 25.3311918,22.3649118 C25.3311918,23.0319752 25.1048531,23.5918456 24.6521757,24.044523 C24.1893258,24.5297525 23.6214445,24.7723673 22.9485319,24.7723673 C22.2756193,24.7723673 21.6965483,24.5297525 21.2113188,24.044523 Z M38.6399076,18.8565348 C37.9781848,19.0106485 37.3717751,18.894936 36.8206785,18.5093973 C36.2695819,18.1238586 35.9218087,17.6162495 35.7773588,16.9865702 L32.7347563,2.89355258 C32.590815,2.24200229 32.7091978,1.63762708 33.0899046,1.08042697 C33.4706114,0.523226857 33.9918262,0.178759694 34.653549,0.0470254815 C35.2928922,-0.075044831 35.8937071,0.0405404962 36.4559934,0.393781463 C37.0182798,0.74702243 37.3767342,1.25450432 37.5313566,1.91622714 L40.5739591,16.0428141 C40.7179004,16.6394327 40.5969745,17.2271504 40.2111814,17.8059671 C39.8253884,18.3847839 39.3016304,18.7349731 38.6399076,18.8565348 Z M105.579452,106.793699 C101.016566,111.378965 96.0032906,114.466073 90.5396269,116.055021 C85.0759631,117.64397 79.4870502,117.574796 73.772888,115.847502 C68.0587258,114.120207 62.5417834,110.596698 57.2220609,105.276975 L27.9343412,75.9739969 C26.0753121,74.1251403 25.1101937,72.1164479 25.038986,69.9479196 C24.9677783,67.7793914 25.765813,65.866575 27.43309,64.2094705 C28.1390633,63.4714538 28.953374,62.901538 29.8760221,62.4997232 C30.7986702,62.0979085 31.7475126,61.9173461 32.7225492,61.9580362 L28.4806059,57.7496622 C26.6434477,55.8906331 25.6975299,53.8996154 25.6428526,51.7766092 C25.5881752,49.653603 26.3944751,47.7635477 28.0617521,46.1064432 C29.4579313,44.7000915 31.0921476,44.0266703 32.964401,44.0861795 C31.4909106,42.2561421 30.7534025,40.2853423 30.7518766,38.1737802 C30.7503507,36.0622181 31.5755969,34.1969583 33.2276151,32.5780008 C34.8791248,30.903603 36.7264555,30.0774668 38.7696073,30.099592 C40.8127592,30.1217173 42.7819059,30.9079264 44.6770475,32.4582193 C44.6582283,31.5060709 44.8359932,30.590925 45.2103422,29.7127817 C45.5846912,28.8346384 46.1248523,28.0425801 46.8308256,27.3366068 C48.5774483,25.5904927 50.5431618,24.7281168 52.7279661,24.7490918 C54.9127704,24.7708414 56.9629158,25.7395202 58.8784025,27.6555155 L88.3019255,57.0790384 C88.5196175,57.2743509 88.7098437,57.2855407 88.8726042,57.1126078 C89.012985,56.9823994 89.0292611,56.7929361 88.9214323,56.5442179 L84.5604704,46.2582682 C83.7670133,44.3565144 83.5121916,42.5844604 83.796005,40.942106 C84.0798185,39.2997517 84.7827401,37.9284952 85.9047697,36.8283365 C87.5603483,35.150887 89.4865161,34.2953775 91.6832731,34.2618082 C93.8800301,34.2282389 95.8130644,35.04611 97.4823759,36.7154215 C98.4416451,37.6751993 99.2709603,38.8755574 99.9703214,40.3164957 L111.341171,64.2018412 C115.241318,72.3947936 116.713791,80.0895466 115.75859,87.2861002 C114.80339,94.4826537 111.410344,100.985187 105.579452,106.793699 Z M101.786117,103.203306 C106.624171,98.3652526 109.564667,92.8825154 110.607605,86.7550943 C111.650543,80.6276733 110.396652,73.8265767 106.845932,66.3518045 L95.2568815,41.9621561 C94.6195727,40.6773661 93.8487496,39.8007486 92.944412,39.3323038 C92.0400745,38.863859 91.0655465,38.871997 90.020828,39.3567179 C89.0310413,39.8190592 88.3707172,40.5401641 88.0398557,41.5200327 C87.7089943,42.4999013 87.8014372,43.6088337 88.3171842,44.8468302 L94.5587919,60.6038187 C94.9855294,61.6561665 95.1166278,62.5593597 94.9520872,63.3133982 C94.7875466,64.0674367 94.4217171,64.7280151 93.8545988,65.2951334 C93.1999967,65.9395629 92.4417621,66.2664825 91.5798948,66.2758921 C90.7180275,66.2853016 89.9048612,65.9077738 89.1403959,65.1433084 L55.5252836,31.5281961 C54.6331531,30.6360656 53.6698149,30.158847 52.635269,30.0965403 C51.6007231,30.0342335 50.6750232,30.4173563 49.8581693,31.2459085 C49.0291085,32.0851419 48.6248777,33.0374175 48.6454771,34.1027353 C48.6660765,35.1680531 49.1224414,36.1355875 50.0145719,37.0053385 L74.395828,61.3713358 C74.879023,61.8652119 75.1300301,62.4558542 75.1488493,63.1432627 C75.1676685,63.8306711 74.9192045,64.4271626 74.4034574,64.9327372 C73.9095813,65.4367858 73.3245339,65.6739328 72.6483152,65.6441782 C71.9720966,65.6144236 71.3921354,65.3526082 70.9084318,64.858732 L42.4332426,36.3988016 C41.5411121,35.5061624 40.556793,35.0180084 39.4802854,34.9343393 C38.4037779,34.8506703 37.472356,35.2180256 36.6860197,36.0364054 C35.8467863,36.8654662 35.4533638,37.828423 35.5057524,38.9252756 C35.5581409,40.0221282 36.0354866,41.0056843 36.9377897,41.8759439 L65.3824613,70.3206156 C65.9495797,70.9101135 66.2190244,71.5378855 66.1907957,72.2039316 C66.1625669,72.8699778 65.9119413,73.4344258 65.4389189,73.8972757 C64.9984485,74.3601257 64.4451902,74.6083353 63.7791441,74.6419046 C63.1130979,74.675474 62.4853259,74.3975097 61.895828,73.8080118 L37.5626371,49.4908426 C36.6705066,48.5880309 35.6863147,48.1264526 34.6100614,48.1061075 C33.5338082,48.0857625 32.5811511,48.4949523 31.7520902,49.3336771 C30.9128568,50.162738 30.5299884,51.0889465 30.6034849,52.1123026 C30.6769814,53.1356587 31.1597949,54.0824666 32.0519255,54.9527262 L58.1757353,81.076536 C58.7433622,81.6436543 59.0129342,82.2658314 58.9844511,82.9430674 C58.955968,83.6203033 58.7052152,84.1903462 58.2321928,84.6531961 C57.7795154,85.0936665 57.2176105,85.3305592 56.5464781,85.3638742 C55.8753457,85.3971893 55.2562203,85.1302876 54.689102,84.5631693 L37.3360441,67.2108744 C36.4662931,66.3406148 35.4931639,65.8951853 34.4166563,65.8745859 C33.3401487,65.8539865 32.3873645,66.2470275 31.5583036,67.0537088 C30.7190702,67.8929422 30.3363289,68.824237 30.4100797,69.8475931 C30.4838306,70.8709492 30.9667712,71.8289469 31.8589018,72.721586 L60.4569242,101.318846 C65.1408638,106.025165 69.9045306,109.15932 74.7479246,110.721311 C79.5913186,112.283303 84.3169655,112.412494 88.9248655,111.108885 C93.5327655,109.805275 97.8198494,107.170083 101.786117,103.203306 Z M59.0081022,22.9420755 C60.77507,21.1959614 62.7401477,20.3310424 64.9033354,20.347093 C67.066523,20.3635945 69.1173043,21.3297302 71.0556791,23.2457254 L87.010269,39.2155741 L84.2392729,43.7047098 L67.6865385,27.1184061 C66.7842354,26.2364481 65.8183541,25.7561777 64.7888944,25.6775949 C63.7594348,25.5990122 62.8301746,25.9790832 62.0011137,26.817808 C61.1623889,27.6468688 60.7613371,28.599653 60.7979582,29.6761606 C60.8345793,30.7526682 61.282679,31.7308837 62.1422575,32.6108072 L56.8207548,28.0636881 C56.8344877,27.1115396 57.0234424,26.1907989 57.3876188,25.3014658 C57.7517952,24.4121327 58.2919564,23.6256693 59.0081022,22.9420755 Z M117.756729,102.416715 C114.303665,105.837227 110.60112,108.42728 106.649093,110.186872 C102.697067,111.946465 98.6374662,112.791929 94.4702909,112.723264 L100.47615,106.834135 C105.270462,105.63632 109.75502,102.95001 113.929825,98.7752054 C118.80043,93.9493591 121.751607,88.4671305 122.783356,82.3285196 C123.815104,76.1899088 122.550532,69.3893208 118.989639,61.9267557 L107.536392,37.9384134 C106.675288,36.0936258 105.377019,35.171232 103.641586,35.171232 C102.425969,35.171232 101.478526,35.5351541 100.799255,36.2629984 C100.119985,36.9908426 99.7803495,37.8481323 99.7803495,38.8348673 C99.7803495,39.5489786 99.9637093,40.3101379 100.330429,41.1183451 L95.565872,39.8457621 C95.4493966,39.2430399 95.3911588,38.6436238 95.3911588,38.0475138 C95.3911588,36.6472656 95.6457263,35.4372436 96.1548612,34.4174478 C96.6639962,33.3976521 97.3306781,32.5593088 98.154907,31.9024179 C98.9791359,31.2455271 99.8616026,30.7628407 100.802307,30.4543589 C101.743011,30.145877 102.644933,29.9916361 103.508072,29.9916361 C105.288772,29.9916361 106.936467,30.4834777 108.451156,31.467161 C109.965846,32.4508442 111.181717,33.924589 112.09877,35.8883951 L123.503189,59.7920511 C127.413508,68.0175557 128.885472,75.725533 127.919082,82.915983 C126.952692,90.106433 123.565241,96.6066772 117.756729,102.416715 Z" id="Shape"></path>
            </g>
        </g>
    </g>
</svg>