<?xml version="1.0" encoding="UTF-8"?>
<svg width="132px" height="115px" viewBox="0 0 132 115" version="1.1" xmlns="http://www.w3.org/2000/svg" xmlns:xlink="http://www.w3.org/1999/xlink">
    <title>􀫓</title>
    <g id="Website" stroke="none" stroke-width="1" fill="none" fill-rule="evenodd">
        <g id="Home" transform="translate(-793, -2135)" fill="#000000" fill-rule="nonzero">
            <g id="Group-3" transform="translate(793.4512, 2135.5439)">
                <g id="􀫓" transform="translate(0, -0)">
                    <path d="M65.7424927,63.2757741 C63.7410482,63.3083262 61.6963704,63.0659658 59.6084595,62.5486928 C57.5205485,62.0314199 55.1849365,61.1868459 52.6016235,60.0149709 L4.13894653,37.811144 C2.77989705,37.1977407 1.75031026,36.3318044 1.05018616,35.2133352 C0.350062052,34.0948659 0,32.8955251 0,31.6153127 C0,30.3676524 0.350062052,29.1845876 1.05018616,28.0661184 C1.75031026,26.9476491 2.77989705,26.0763723 4.13894653,25.4522878 L52.6016235,3.26448263 C55.1849365,2.08243511 57.5205485,1.23519085 59.6084595,0.722749846 C61.6963704,0.210308847 63.7410482,-0.0296356111 65.7424927,0.00291647224 C67.7434285,-0.0296356111 69.7853088,0.210308847 71.8681335,0.722749846 C73.9509583,1.23519085 76.2893677,2.08243511 78.8833618,3.26448263 L127.363586,25.4522878 C128.732808,26.0763723 129.767481,26.9476491 130.467606,28.0661184 C131.16773,29.1845876 131.517792,30.3676524 131.517792,31.6153127 C131.517792,32.8955251 131.16773,34.0948659 130.467606,35.2133352 C129.767481,36.3318044 128.732808,37.1977407 127.363586,37.811144 L78.8833618,60.0149709 C76.2893677,61.1868459 73.9509583,62.0314199 71.8681335,62.5486928 C69.7853088,63.0659658 67.7434285,63.3083262 65.7424927,63.2757741 Z M65.7424927,57.3607046 C67.4209595,57.3607046 69.1112518,57.1461914 70.8133698,56.7171651 C72.5154877,56.2881388 74.4440715,55.5861074 76.5991211,54.6110708 L122.954559,33.413561 C123.862457,33.002591 124.316406,32.4031749 124.316406,31.6153127 C124.316406,30.8600027 123.862457,30.271522 122.954559,29.8498708 L76.5991211,8.66838278 C74.4440715,7.68317363 72.5154877,6.97859905 70.8133698,6.55465903 C69.1112518,6.130719 67.4209595,5.91874899 65.7424927,5.91874899 C64.0635173,5.91874899 62.3760223,6.130719 60.6800079,6.55465903 C58.9839935,6.97859905 57.0635478,7.68317363 54.9186707,8.66838278 L8.56323242,29.8498708 C7.64516195,30.271522 7.18612671,30.8600027 7.18612671,31.6153127 C7.18612671,32.4031749 7.64516195,33.002591 8.56323242,33.413561 L54.9186707,54.6110708 C57.0635478,55.5861074 58.9839935,56.2881388 60.6800079,56.7171651 C62.3760223,57.1461914 64.0635173,57.3607046 65.7424927,57.3607046 Z M20.0271606,68.2112295 L20.0271606,42.9831106 L26.0276794,42.9831106 L26.0276794,68.2112295 C26.0276794,70.5041168 26.934433,72.8019633 28.7479401,75.1047689 C30.5614471,77.4075745 33.1858317,79.5144318 36.6210938,81.4253408 C40.0563558,83.3362498 44.2302704,84.8697581 49.1428375,86.0258657 C54.0554047,87.1819733 59.588623,87.7600271 65.7424927,87.7600271 C71.9182332,87.7600271 77.4542491,87.1819733 82.3505402,86.0258657 C87.2468313,84.8697581 91.415151,83.3362498 94.8554993,81.4253408 C98.2958476,79.5144318 100.92837,77.4075745 102.753067,75.1047689 C104.577764,72.8019633 105.490112,70.5041168 105.490112,68.2112295 L105.490112,42.9831106 L111.490631,42.9831106 L111.490631,68.2112295 C111.490631,71.35454 110.437266,74.4307119 108.330536,77.4397451 C106.223806,80.4487783 103.187943,83.1574677 99.2229462,85.5658132 C95.2579498,87.9741587 90.4543559,89.8914256 84.8121643,91.3176137 C79.1699727,92.7438019 72.8134155,93.456896 65.7424927,93.456896 C58.6715698,93.456896 52.3179372,92.7438019 46.6815948,91.3176137 C41.0452525,89.8914256 36.2416585,87.9741587 32.270813,85.5658132 C28.2999674,83.1574677 25.2666473,80.4487783 23.1708527,77.4397451 C21.075058,74.4307119 20.0271606,71.35454 20.0271606,68.2112295 Z M65.8607483,36.7819387 C64.0942891,36.7819387 62.4493917,36.5428843 60.9260559,36.0647756 C59.4027201,35.5866669 58.1750234,34.9582591 57.2429657,34.1795522 C56.310908,33.4008453 55.8448792,32.5410126 55.8448792,31.6000539 C55.8448792,30.6916473 56.310908,29.8587718 57.2429657,29.1014272 C58.1750234,28.3440827 59.4027201,27.7319509 60.9260559,27.265032 C62.4493917,26.798113 64.0942891,26.5646535 65.8607483,26.5646535 C67.6592509,26.5646535 69.3120321,26.798113 70.8190918,27.265032 C72.3261515,27.7319509 73.5376994,28.3440827 74.4537354,29.1014272 C75.3697713,29.8587718 75.8277893,30.6916473 75.8277893,31.6000539 C75.8277893,32.5410126 75.3697713,33.4008453 74.4537354,34.1795522 C73.5376994,34.9582591 72.3261515,35.5866669 70.8190918,36.0647756 C69.3120321,36.5428843 67.6592509,36.7819387 65.8607483,36.7819387 Z M35.2043152,49.303301 L30.178833,46.6414052 L63.2270813,30.1107961 L65.297699,34.094103 L35.2043152,49.303301 Z M30.178833,95.6503469 L30.178833,46.808489 L35.2043152,49.303301 L35.2043152,95.6503469 L30.178833,95.6503469 Z M26.3679504,95.6732351 C26.3679504,93.9372935 26.8765767,92.5606964 27.8938293,91.5434438 C28.9110819,90.5261912 30.287679,90.0175649 32.0236206,90.0175649 L33.3267212,90.0175649 C35.0626628,90.0175649 36.4391327,90.5261912 37.456131,91.5434438 C38.4731293,92.5606964 38.9816284,93.9372935 38.9816284,95.6732351 L38.9816284,108.653124 C38.9816284,110.389066 38.4731293,111.765663 37.456131,112.782915 C36.4391327,113.800168 35.0626628,114.308794 33.3267212,114.308794 L32.0236206,114.308794 C30.287679,114.308794 28.9110819,113.800168 27.8938293,112.782915 C26.8765767,111.765663 26.3679504,110.389066 26.3679504,108.653124 L26.3679504,95.6732351 Z" id="Shape"></path>
                </g>
            </g>
        </g>
    </g>
</svg>