<?xml version="1.0" encoding="UTF-8"?>
<svg width="61px" height="61px" viewBox="0 0 61 61" version="1.1" xmlns="http://www.w3.org/2000/svg" xmlns:xlink="http://www.w3.org/1999/xlink">
    <title>Group</title>
    <g id="Page-1" stroke="none" stroke-width="1" fill="none" fill-rule="evenodd">
        <g id="Group" transform="translate(-7, -7)">
            <g transform="translate(15, 15)" fill="#000000" fill-rule="nonzero" id="􀇷">
                <g transform="translate(-6, -8)">
                    <path d="M10.3733063,28.2864075 C9.0066274,28.2864075 7.97367096,27.9444834 7.27443695,27.2606354 C6.57520294,26.5767873 6.22558594,25.5138855 6.22558594,24.0719299 L6.22558594,12.4958496 C6.22558594,11.0648295 6.57520294,10.0046616 7.27443695,9.31534576 C7.97367096,8.62602997 9.0066274,8.28137207 10.3733063,8.28137207 L22.0752716,8.28137207 C23.4422048,8.28137207 24.47656,8.62602997 25.1783371,9.31534576 C25.8801142,10.0046616 26.2310028,11.0648295 26.2310028,12.4958496 L26.2310028,24.0719299 C26.2310028,25.5138855 25.8801142,26.5767873 25.1783371,27.2606354 C24.47656,27.9444834 23.4422048,28.2864075 22.0752716,28.2864075 L10.3733063,28.2864075 Z M10.4297638,25.6054382 L22.0096588,25.6054382 C22.5302378,25.6054382 22.9157766,25.480189 23.166275,25.2296906 C23.4167735,24.9791921 23.5420227,24.5799205 23.5420227,24.0318756 L23.5420227,12.5191193 C23.5420227,11.9873505 23.4167735,11.5962168 23.166275,11.3457184 C22.9157766,11.0952199 22.5302378,10.9699707 22.0096588,10.9699707 L10.4297638,10.9699707 C9.90409851,10.9699707 9.51881409,11.0952199 9.27391052,11.3457184 C9.02900696,11.5962168 8.90655518,11.9873505 8.90655518,12.5191193 L8.90655518,24.0318756 C8.90655518,24.5799205 9.02900696,24.9791921 9.27391052,25.2296906 C9.51881409,25.480189 9.90409851,25.6054382 10.4297638,25.6054382 Z M34.5775604,28.2864075 C33.1996918,28.2864075 32.1611404,27.9444834 31.4619064,27.2606354 C30.7626724,26.5767873 30.4130554,25.5138855 30.4130554,24.0719299 L30.4130554,12.4958496 C30.4130554,11.0648295 30.7626724,10.0046616 31.4619064,9.31534576 C32.1611404,8.62602997 33.1996918,8.28137207 34.5775604,8.28137207 L46.2627411,8.28137207 C47.62942,8.28137207 48.663648,8.62602997 49.3654251,9.31534576 C50.0672023,10.0046616 50.4180908,11.0648295 50.4180908,12.4958496 L50.4180908,24.0719299 C50.4180908,25.5138855 50.0672023,26.5767873 49.3654251,27.2606354 C48.663648,27.9444834 47.62942,28.2864075 46.2627411,28.2864075 L34.5775604,28.2864075 Z M34.6340179,25.6054382 L46.213913,25.6054382 C46.7456818,25.6054382 47.1312205,25.480189 47.3705292,25.2296906 C47.6098378,24.9791921 47.7294922,24.5799205 47.7294922,24.0318756 L47.7294922,12.5191193 C47.7294922,11.9873505 47.6098378,11.5962168 47.3705292,11.3457184 C47.1312205,11.0952199 46.7456818,10.9699707 46.213913,10.9699707 L34.6340179,10.9699707 C34.0971629,10.9699707 33.7075551,11.0952199 33.4651947,11.3457184 C33.2228343,11.5962168 33.1016541,11.9873505 33.1016541,12.5191193 L33.1016541,24.0318756 C33.1016541,24.5799205 33.2228343,24.9791921 33.4651947,25.2296906 C33.7075551,25.480189 34.0971629,25.6054382 34.6340179,25.6054382 Z M10.3733063,52.473877 C9.0066274,52.473877 7.97367096,52.1319529 7.27443695,51.4481049 C6.57520294,50.7642568 6.22558594,49.7012278 6.22558594,48.2590179 L6.22558594,36.7077332 C6.22558594,35.260437 6.57520294,34.1961365 7.27443695,33.5148315 C7.97367096,32.8335266 9.0066274,32.4928741 10.3733063,32.4928741 L22.0752716,32.4928741 C23.4422048,32.4928741 24.47656,32.8335266 25.1783371,33.5148315 C25.8801142,34.1961365 26.2310028,35.260437 26.2310028,36.7077332 L26.2310028,48.2590179 C26.2310028,49.7012278 25.8801142,50.7642568 25.1783371,51.4481049 C24.47656,52.1319529 23.4422048,52.473877 22.0752716,52.473877 L10.3733063,52.473877 Z M10.4297638,49.7929077 L22.0096588,49.7929077 C22.5302378,49.7929077 22.9157766,49.6704559 23.166275,49.4255524 C23.4167735,49.1806488 23.5420227,48.7897695 23.5420227,48.2529144 L23.5420227,36.7229919 C23.5420227,36.1914775 23.4167735,35.800471 23.166275,35.5499725 C22.9157766,35.2994741 22.5302378,35.1742249 22.0096588,35.1742249 L10.4297638,35.1742249 C9.90409851,35.1742249 9.51881409,35.2994741 9.27391052,35.5499725 C9.02900696,35.800471 8.90655518,36.1914775 8.90655518,36.7229919 L8.90655518,48.2529144 C8.90655518,48.7897695 9.02900696,49.1806488 9.27391052,49.4255524 C9.51881409,49.6704559 9.90409851,49.7929077 10.4297638,49.7929077 Z M34.5775604,52.473877 C33.1996918,52.473877 32.1611404,52.1319529 31.4619064,51.4481049 C30.7626724,50.7642568 30.4130554,49.7012278 30.4130554,48.2590179 L30.4130554,36.7077332 C30.4130554,35.260437 30.7626724,34.1961365 31.4619064,33.5148315 C32.1611404,32.8335266 33.1996918,32.4928741 34.5775604,32.4928741 L46.2627411,32.4928741 C47.62942,32.4928741 48.663648,32.8335266 49.3654251,33.5148315 C50.0672023,34.1961365 50.4180908,35.260437 50.4180908,36.7077332 L50.4180908,48.2590179 C50.4180908,49.7012278 50.0672023,50.7642568 49.3654251,51.4481049 C48.663648,52.1319529 47.62942,52.473877 46.2627411,52.473877 L34.5775604,52.473877 Z M34.6340179,49.7929077 L46.213913,49.7929077 C46.7456818,49.7929077 47.1312205,49.6704559 47.3705292,49.4255524 C47.6098378,49.1806488 47.7294922,48.7897695 47.7294922,48.2529144 L47.7294922,36.7229919 C47.7294922,36.1914775 47.6098378,35.800471 47.3705292,35.5499725 C47.1312205,35.2994741 46.7456818,35.1742249 46.213913,35.1742249 L34.6340179,35.1742249 C34.0971629,35.1742249 33.7075551,35.2994741 33.4651947,35.5499725 C33.2228343,35.800471 33.1016541,36.1914775 33.1016541,36.7229919 L33.1016541,48.2529144 C33.1016541,48.7897695 33.2228343,49.1806488 33.4651947,49.4255524 C33.7075551,49.6704559 34.0971629,49.7929077 34.6340179,49.7929077 Z" id="Shape"></path>
                </g>
            </g>
            <rect id="Rectangle" x="7" y="7" width="61" height="61"></rect>
        </g>
    </g>
</svg>