<?xml version="1.0" encoding="UTF-8"?>
<svg width="52px" height="36px" viewBox="0 0 52 36" version="1.1" xmlns="http://www.w3.org/2000/svg" xmlns:xlink="http://www.w3.org/1999/xlink">
    <title>􀌙</title>
    <g id="Website" stroke="none" stroke-width="1" fill="none" fill-rule="evenodd">
        <g id="Home" transform="translate(-920, -609)" fill="#000000" fill-rule="nonzero">
            <g id="􀌙" transform="translate(920.4961, 609.3872)">
                <path d="M0,17.5307377 C0,14.2494877 0.5859375,11.1537846 1.7578125,8.24362833 C2.9296875,5.33347208 4.58333333,2.7651127 6.71875,0.538550205 C7.0703125,0.160946038 7.45768229,-0.0180904201 7.88085937,0.00144082992 C8.30403646,0.0209720799 8.65234375,0.180477288 8.92578125,0.479956455 C9.21223958,0.792456455 9.32942708,1.15052937 9.27734375,1.5541752 C9.22526042,1.95782104 9.03645833,2.3354252 8.7109375,2.6869877 C6.8359375,4.6401127 5.40364583,6.88946166 4.4140625,9.43503458 C3.42447917,11.9806075 2.9296875,14.6791752 2.9296875,17.5307377 C2.9296875,20.3823002 3.42447917,23.0808679 4.4140625,25.6264408 C5.40364583,28.1720137 6.8359375,30.4213627 8.7109375,32.3744877 C9.03645833,32.7260502 9.22526042,33.1036544 9.27734375,33.5073002 C9.32942708,33.910946 9.21223958,34.2625085 8.92578125,34.5619877 C8.65234375,34.8744877 8.30403646,35.0372481 7.88085937,35.050269 C7.45768229,35.0632898 7.0703125,34.8875085 6.71875,34.5229252 C4.58333333,32.2963627 2.9296875,29.7247481 1.7578125,26.8080815 C0.5859375,23.8914148 0,20.7989669 0,17.5307377 Z M6.9921875,17.5307377 C6.9921875,15.2130294 7.39257813,13.0059981 8.19335938,10.909644 C8.99414063,8.81328979 10.1432292,6.95782104 11.640625,5.3432377 C11.9791667,4.96563354 12.3697917,4.77357625 12.8125,4.76687435 C13.2552083,4.76055541 13.6197917,4.92006062 13.90625,5.24558145 C14.1927083,5.58412312 14.3066406,5.94870645 14.2480469,6.33933145 C14.1894531,6.72995645 13.9908854,7.10756062 13.6523438,7.47214395 C12.4414063,8.82631062 11.5136719,10.362769 10.8691406,12.081519 C10.2246094,13.800269 9.90234375,15.6166752 9.90234375,17.5307377 C9.90234375,19.4448002 10.2246094,21.2612065 10.8691406,22.9799565 C11.5136719,24.6987065 12.4414063,26.2351648 13.6523438,27.5893315 C13.9908854,27.9539148 14.1894531,28.331519 14.2480469,28.722144 C14.3066406,29.112769 14.1927083,29.4708419 13.90625,29.7963627 C13.6197917,30.1349044 13.2552083,30.30092 12.8125,30.2945938 C12.3697917,30.2878992 11.9791667,30.0893315 11.640625,29.6987065 C10.1432292,28.0841231 8.99414063,26.2319096 8.19335938,24.1420658 C7.39257813,22.0522221 6.9921875,19.848446 6.9921875,17.5307377 Z M13.9648438,17.5307377 C13.9648438,16.2156335 14.1796875,14.9591231 14.609375,13.7612065 C15.0390625,12.5632898 15.6445312,11.4760502 16.4257813,10.4994877 C16.7382812,10.0958419 17.125651,9.88750854 17.5878906,9.8744877 C18.0501302,9.86146687 18.4309896,10.0242273 18.7304688,10.362769 C19.0169271,10.6882898 19.1210938,11.0431075 19.0429688,11.4272221 C18.9648438,11.8113367 18.7825521,12.1987065 18.4960938,12.5893315 C17.9622396,13.2664148 17.561849,14.0248783 17.2949219,14.8647221 C17.0279948,15.7045658 16.8945313,16.5932377 16.8945313,17.5307377 C16.8945313,18.4682377 17.0279948,19.3569096 17.2949219,20.1967533 C17.561849,21.0365971 17.9622396,21.7885502 18.4960938,22.4526127 C18.7825521,22.8562585 18.9648438,23.2501387 19.0429688,23.6342533 C19.1210938,24.0183679 19.0169271,24.3731856 18.7304688,24.6987065 C18.4309896,25.0372481 18.0501302,25.2000085 17.5878906,25.1869877 C17.125651,25.1739669 16.7382812,24.9591231 16.4257813,24.5424565 C15.6445312,23.5789148 15.0390625,22.4981856 14.609375,21.300269 C14.1796875,20.1023523 13.9648438,18.8458419 13.9648438,17.5307377 Z M36.9140625,17.5307377 C36.9140625,18.8458419 36.6992188,20.1023523 36.2695313,21.300269 C35.8398438,22.4981856 35.234375,23.5789148 34.453125,24.5424565 C34.1276042,24.9591231 33.7369792,25.1739669 33.28125,25.1869877 C32.8255208,25.2000085 32.4479167,25.0372481 32.1484375,24.6987065 C31.8489583,24.3731856 31.7415365,24.0183679 31.8261719,23.6342533 C31.9108073,23.2501387 32.0963542,22.8562585 32.3828125,22.4526127 C32.9036458,21.7885502 33.3007813,21.0365971 33.5742188,20.1967533 C33.8476563,19.3569096 33.984375,18.4682377 33.984375,17.5307377 C33.984375,16.5932377 33.8476563,15.7045658 33.5742188,14.8647221 C33.3007813,14.0248783 32.9036458,13.2664148 32.3828125,12.5893315 C32.0963542,12.1987065 31.9108073,11.8113367 31.8261719,11.4272221 C31.7415365,11.0431075 31.8489583,10.6882898 32.1484375,10.362769 C32.4479167,10.0242273 32.8255208,9.86146687 33.28125,9.8744877 C33.7369792,9.88750854 34.1276042,10.0958419 34.453125,10.4994877 C35.234375,11.4760502 35.8398438,12.5632898 36.2695313,13.7612065 C36.6992188,14.9591231 36.9140625,16.2156335 36.9140625,17.5307377 Z M43.8867188,17.5307377 C43.8867188,19.848446 43.4863281,22.0522221 42.6855469,24.1420658 C41.8847656,26.2319096 40.7356771,28.0841231 39.2382813,29.6987065 C38.8867188,30.0893315 38.4928385,30.2878992 38.0566406,30.2945938 C37.6204427,30.30092 37.2591146,30.1349044 36.9726563,29.7963627 C36.6861979,29.4708419 36.5722656,29.112769 36.6308594,28.722144 C36.6894531,28.331519 36.8815104,27.9539148 37.2070313,27.5893315 C38.4309896,26.2351648 39.3652344,24.6987065 40.0097656,22.9799565 C40.6542969,21.2612065 40.9765625,19.4448002 40.9765625,17.5307377 C40.9765625,15.6166752 40.6542969,13.800269 40.0097656,12.081519 C39.3652344,10.362769 38.4309896,8.82631062 37.2070313,7.47214395 C36.8815104,7.10756062 36.6894531,6.72995645 36.6308594,6.33933145 C36.5722656,5.94870645 36.6861979,5.58412312 36.9726563,5.24558145 C37.2591146,4.92006062 37.6204427,4.76055541 38.0566406,4.76687435 C38.4928385,4.77357625 38.8867188,4.96563354 39.2382813,5.3432377 C40.7356771,6.95782104 41.8847656,8.81328979 42.6855469,10.909644 C43.4863281,13.0059981 43.8867188,15.2130294 43.8867188,17.5307377 Z M50.8789063,17.5307377 C50.8789063,20.7989669 50.2897135,23.8914148 49.1113281,26.8080815 C47.9329427,29.7247481 46.2825521,32.2963627 44.1601563,34.5229252 C43.8085938,34.8875085 43.421224,35.0632898 42.9980469,35.050269 C42.5748698,35.0372481 42.2265625,34.8744877 41.953125,34.5619877 C41.6666667,34.2625085 41.5494792,33.910946 41.6015625,33.5073002 C41.6536458,33.1036544 41.8424479,32.7260502 42.1679688,32.3744877 C44.0429688,30.4213627 45.4752604,28.1720137 46.4648438,25.6264408 C47.4544271,23.0808679 47.9492188,20.3823002 47.9492188,17.5307377 C47.9492188,14.6791752 47.4544271,11.9806075 46.4648438,9.43503458 C45.4752604,6.88946166 44.0429688,4.6401127 42.1679688,2.6869877 C41.8424479,2.3354252 41.6536458,1.95782104 41.6015625,1.5541752 C41.5494792,1.15052937 41.6666667,0.792456455 41.953125,0.479956455 C42.2265625,0.180477288 42.5748698,0.0209720799 42.9980469,0.00144082992 C43.421224,-0.0180904201 43.8085938,0.160946038 44.1601563,0.538550205 C46.2825521,2.7651127 47.9329427,5.33347208 49.1113281,8.24362833 C50.2897135,11.1537846 50.8789063,14.2494877 50.8789063,17.5307377 Z M21.875,17.5698002 C21.875,16.9187585 22.0377604,16.3198002 22.3632812,15.7729252 C22.6888021,15.2260502 23.1217448,14.7898523 23.6621094,14.4643315 C24.202474,14.1388106 24.8046875,13.9760502 25.46875,13.9760502 C26.4453125,13.9760502 27.2753906,14.3243575 27.9589844,15.0209721 C28.6425781,15.7175867 28.984375,16.5541752 28.984375,17.5307377 C28.984375,18.1687585 28.8248698,18.7579512 28.5058594,19.2983158 C28.186849,19.8386804 27.7604167,20.2683679 27.2265625,20.5873783 C26.6927083,20.9063887 26.1067708,21.065894 25.46875,21.065894 C24.8177083,21.065894 24.2220052,20.9063887 23.6816406,20.5873783 C23.141276,20.2683679 22.7050781,19.8451908 22.3730469,19.3178471 C22.0410156,18.7905033 21.875,18.207821 21.875,17.5698002 Z" id="Shape"></path>
            </g>
        </g>
    </g>
</svg>