<?xml version="1.0" encoding="UTF-8"?>
<svg width="86px" height="109px" viewBox="0 0 86 109" version="1.1" xmlns="http://www.w3.org/2000/svg" xmlns:xlink="http://www.w3.org/1999/xlink">
    <title>􁜾</title>
    <g id="Website" stroke="none" stroke-width="1" fill="none" fill-rule="evenodd">
        <g id="Home" transform="translate(-129, -2129)" fill="#000000" fill-rule="nonzero">
            <g id="Group" transform="translate(129.4512, 2128.9999)">
                <g id="􁜾" transform="translate(0, -0)">
                    <path d="M0,93.3678879 L0,18.5250534 C0,14.5796392 1.08350118,11.5778539 3.25050354,9.51969757 C5.4175059,7.46154123 8.3635966,6.35947519 12.0887756,6.21349945 C17.7635193,5.97851409 23.3418783,5.58725331 28.8238525,5.0397171 C34.3058268,4.49218088 39.6448771,3.82600758 44.8410034,3.0411972 C50.0371297,2.25638682 55.0420125,1.37900644 59.8556519,0.409056086 C63.9383952,-0.472393295 67.1278636,0.0706924388 69.424057,2.03831329 C71.7202504,4.00593414 72.8683472,7.08681081 72.8683472,11.2809433 L72.8683472,85.5332626 C72.8683472,89.3566065 72.097524,92.2335241 70.5558777,94.1640152 C69.0142314,96.0945063 66.5941874,97.4608037 63.2957458,98.2629074 C57.346344,99.6687505 51.537323,100.793705 45.8686829,101.63777 C40.2000427,102.481835 34.6179962,103.12334 29.1225433,103.562285 C23.6270905,104.001229 18.1348165,104.320901 12.6457214,104.5213 C8.67436727,104.689655 5.57390849,103.800068 3.34434509,101.852538 C1.1147817,99.9050074 0,97.0767909 0,93.3678879 Z M6.01577759,92.3974289 C6.01577759,94.383106 6.63083394,95.9143255 7.86094666,96.9910873 C9.09105937,98.0678492 10.774231,98.5729151 12.9104614,98.5062851 C18.3446248,98.3277573 23.7511953,98.024616 29.1301727,97.5968613 C34.5091502,97.1691065 39.8515066,96.5696904 45.1572418,95.798613 C50.4629771,95.0275355 55.7380676,94.0341883 60.9825134,92.8185715 C62.9931132,92.3816615 64.476649,91.583754 65.4331207,90.4248489 C66.3895925,89.2659439 66.8678284,87.5583583 66.8678284,85.302092 L66.8678284,12.21707 C66.8678284,10.0055628 66.2078857,8.37808583 64.8880005,7.33463897 C63.5681152,6.29119211 61.7800395,5.99911346 59.5237732,6.45840301 C54.7772725,7.40597381 49.8444875,8.26949412 44.7254181,9.04896392 C39.6063487,9.82843373 34.3697866,10.486469 29.0157318,11.0230698 C23.661677,11.5596705 18.2250977,11.923084 12.7059937,12.1133102 C10.6699626,12.1804489 9.04591878,12.72061 7.8338623,13.7337936 C6.62180583,14.7469772 6.01577759,16.3148178 6.01577759,18.4373154 L6.01577759,92.3974289 Z M17.6933289,29.706694 C17.0331319,29.740772 16.48585,29.5460953 16.0514832,29.1226639 C15.6171163,28.6992325 15.3999329,28.1739487 15.3999329,27.5468124 C15.3999329,26.9313746 15.597407,26.4063451 15.9923553,25.9717239 C16.3873037,25.5371028 16.9542948,25.2974126 17.6933289,25.2526535 C24.596405,24.9835902 31.036377,24.4364354 37.0132446,23.6111893 C42.9901123,22.7859431 48.937734,21.7660202 54.8561096,20.5514206 C55.6841532,20.3744186 56.3292185,20.5109848 56.7913055,20.9611191 C57.2533925,21.4112534 57.484436,21.9386988 57.484436,22.5434555 C57.484436,23.1039617 57.3177338,23.5989822 56.9843292,24.0285171 C56.6509247,24.4580521 56.0590108,24.7559799 55.2085876,24.9223007 C49.1223653,26.1816594 43.0740356,27.2239619 37.0635986,28.0492081 C31.0531616,28.8744542 24.596405,29.4269496 17.6933289,29.706694 Z M17.6933289,45.9824814 C17.0331319,45.9946884 16.48585,45.7890762 16.0514832,45.3656448 C15.6171163,44.9422134 15.3999329,44.4166753 15.3999329,43.7890305 C15.3999329,43.1959722 15.597407,42.6822596 15.9923553,42.2478928 C16.3873037,41.8135259 16.9542948,41.5739629 17.6933289,41.5292038 C24.596405,41.2372523 31.036377,40.6842483 37.0132446,39.870192 C42.9901123,39.0561356 48.937734,38.0418076 54.8561096,36.8272079 C55.6841532,36.6507146 56.3292185,36.7874079 56.7913055,37.2372879 C57.2533925,37.6871679 57.484436,38.2147405 57.484436,38.8200058 C57.484436,39.380512 57.3177338,39.8699376 56.9843292,40.2882828 C56.6509247,40.7066279 56.0590108,41.0101507 55.2085876,41.198851 C49.1223653,42.4582097 43.0740356,43.4949173 37.0635986,44.3089737 C31.0531616,45.1230301 24.596405,45.680866 17.6933289,45.9824814 Z M17.6933289,62.2590317 C17.0331319,62.2712387 16.48585,62.0656265 16.0514832,61.6421951 C15.6171163,61.2187637 15.3999329,60.6932256 15.3999329,60.0655807 C15.3999329,59.4725225 15.597407,58.9586828 15.9923553,58.5240616 C16.3873037,58.0894404 16.9542948,57.8500046 17.6933289,57.8057541 C24.596405,57.5138026 31.036377,56.9607986 37.0132446,56.1467422 C42.9901123,55.3326858 48.937734,54.3183578 54.8561096,53.1037582 C55.6841532,52.9272649 56.3292185,53.0583633 56.7913055,53.4970535 C57.2533925,53.9357437 57.484436,54.4689112 57.484436,55.0965561 C57.484436,55.6570623 57.3177338,56.1464879 56.9843292,56.5648331 C56.6509247,56.9831782 56.0590108,57.2867009 55.2085876,57.4754013 C49.1223653,58.7123805 43.0740356,59.743366 37.0635986,60.5683578 C31.0531616,61.3933497 24.596405,61.9569076 17.6933289,62.2590317 Z M17.6933289,78.5020126 C17.0331319,78.5142197 16.48585,78.3086075 16.0514832,77.8851761 C15.6171163,77.4617447 15.3999329,76.9362066 15.3999329,76.3085617 C15.3999329,75.7155034 15.597407,75.2016637 15.9923553,74.7670425 C16.3873037,74.3324214 16.9542948,74.0929855 17.6933289,74.048735 C21.4474996,73.9027593 24.7469584,73.6717158 27.5917053,73.3556045 C30.4364522,73.0394933 33.215332,72.7125737 35.9283447,72.3748459 C36.7787679,72.2410772 37.4323527,72.3996414 37.8890991,72.8505386 C38.3458455,73.3014358 38.5742188,73.8292628 38.5742188,74.4340195 C38.5742188,74.9604477 38.3934021,75.4440241 38.0317688,75.8847488 C37.6701355,76.3254735 37.1594747,76.6066167 36.4997864,76.7281784 C33.5960388,77.1101568 30.6854248,77.4622533 27.7679443,77.7844681 C24.8504639,78.1066828 21.4922587,78.3458644 17.6933289,78.5020126 Z M35.8146667,108.718993 C40.4492696,108.110676 45.1877594,107.396946 50.0301361,106.577803 C54.8725128,105.75866 59.7640991,104.806639 64.704895,103.721739 C67.7052816,102.972533 70.2331543,101.829268 72.2885132,100.291945 C74.3438721,98.7546219 75.9001414,96.7678004 76.9573212,94.3314804 C78.0145009,91.8951604 78.5430908,88.9624212 78.5430908,85.5332626 L78.5430908,11.2809433 C78.5430908,10.6858505 78.5263062,10.1105942 78.4927368,9.55517425 C78.4591675,8.99975433 78.414917,8.46315358 78.3599854,7.945372 C80.5628459,8.63608652 82.2493235,10.0041641 83.4194183,12.0496048 C84.5895131,14.0950455 85.1745605,16.749439 85.1745605,20.0127853 L85.1745605,94.3581833 C85.1745605,99.1306239 83.9853923,102.717202 81.6070557,105.117918 C79.2287191,107.518635 75.67571,108.718993 70.9480286,108.718993 L35.8146667,108.718993 Z" id="Shape"></path>
                </g>
            </g>
        </g>
    </g>
</svg>