<?xml version="1.0" encoding="UTF-8"?>
<svg width="105px" height="92px" viewBox="0 0 105 92" version="1.1" xmlns="http://www.w3.org/2000/svg" xmlns:xlink="http://www.w3.org/1999/xlink">
    <title>􁂥</title>
    <g id="Website" stroke="none" stroke-width="1" fill="none" fill-rule="evenodd">
        <g id="Home" transform="translate(-464, -2137)" fill="#000000" fill-rule="nonzero">
            <g id="􁂥" transform="translate(464.4512, 2137.8761)">
                <path d="M0,86.8865967 L0,3.01361084 C0,2.22829183 0.287628174,1.5296936 0.862884521,0.917816162 C1.43814087,0.305938721 2.16649373,0 3.04794312,0 C3.88615926,0 4.59035238,0.305938721 5.16052246,0.917816162 C5.73069255,1.5296936 6.01577759,2.22829183 6.01577759,3.01361084 L6.01577759,83.0871582 C6.01577759,83.8551839 6.39979045,84.2391968 7.16781616,84.2391968 L101.132965,84.2391968 C101.940664,84.2391968 102.645365,84.5217387 103.24707,85.0868225 C103.848775,85.6519063 104.149628,86.3586426 104.149628,87.2070313 C104.149628,88.067627 103.848775,88.7748718 103.24707,89.3287659 C102.645365,89.8826599 101.940664,90.1596069 101.132965,90.1596069 L3.30657959,90.1596069 C2.30865479,90.1596069 1.50807699,89.8661296 0.904846191,89.2791748 C0.301615397,88.6922201 0,87.894694 0,86.8865967 Z M3.68118286,56.0699463 L3.68118286,50.6721497 L36.1198425,31.9564819 L58.8600159,51.9508362 L95.6558228,29.1687012 L98.2551575,33.1336975 L58.5159302,57.6438904 L35.6773376,37.5518799 L3.68118286,56.0699463 Z M35.2424622,43.7896729 C33.8116964,43.7896729 32.5012207,43.4350332 31.3110352,42.7257538 C30.1208496,42.0164744 29.17099,41.0692851 28.4614563,39.8841858 C27.7519226,38.6990865 27.3971558,37.3858134 27.3971558,35.9443665 C27.3971558,34.5034281 27.7519226,33.1878662 28.4614563,31.9976807 C29.17099,30.8074951 30.1208496,29.8657735 31.3110352,29.1725159 C32.5012207,28.4792582 33.8116964,28.1326294 35.2424622,28.1326294 C36.6839091,28.1326294 37.9997253,28.4792582 39.1899109,29.1725159 C40.3800964,29.8657735 41.3272858,30.8074951 42.0314789,31.9976807 C42.735672,33.1878662 43.0877686,34.5034281 43.0877686,35.9443665 C43.0877686,37.3858134 42.735672,38.6990865 42.0314789,39.8841858 C41.3272858,41.0692851 40.3800964,42.0164744 39.1899109,42.7257538 C37.9997253,43.4350332 36.6839091,43.7896729 35.2424622,43.7896729 Z M58.4281921,62.4481201 C56.9867452,62.4481201 55.670929,62.0958964 54.4807434,61.391449 C53.2905579,60.6870015 52.3433685,59.7396851 51.6391754,58.5494995 C50.9349823,57.359314 50.5828857,56.043752 50.5828857,54.6028137 C50.5828857,53.1613668 50.9349823,51.8455505 51.6391754,50.655365 C52.3433685,49.4651794 53.2905579,48.5234578 54.4807434,47.8302002 C55.670929,47.1369425 56.9867452,46.7903137 58.4281921,46.7903137 C59.8691305,46.7903137 61.1846924,47.1369425 62.3748779,47.8302002 C63.5650635,48.5234578 64.5067851,49.4651794 65.2000427,50.655365 C65.8933004,51.8455505 66.2399292,53.1613668 66.2399292,54.6028137 C66.2399292,56.043752 65.8933004,57.359314 65.2000427,58.5494995 C64.5067851,59.7396851 63.5650635,60.6870015 62.3748779,61.391449 C61.1846924,62.0958964 59.8691305,62.4481201 58.4281921,62.4481201 Z M95.0752258,39.5545959 C93.6337789,39.5545959 92.3206329,39.1998291 91.135788,38.4902954 C89.950943,37.7807617 89.0037537,36.8334452 88.29422,35.6483459 C87.5846863,34.4632467 87.2299194,33.1502279 87.2299194,31.7092896 C87.2299194,30.2678426 87.5846863,28.9520264 88.29422,27.7618408 C89.0037537,26.5716553 89.950943,25.6244659 91.135788,24.9202728 C92.3206329,24.2160797 93.6337789,23.8639832 95.0752258,23.8639832 C96.5166728,23.8639832 97.832489,24.2160797 99.0226746,24.9202728 C100.21286,25.6244659 101.160049,26.5716553 101.864243,27.7618408 C102.568436,28.9520264 102.920532,30.2678426 102.920532,31.7092896 C102.920532,33.1502279 102.568436,34.4632467 101.864243,35.6483459 C101.160049,36.8334452 100.21286,37.7807617 99.0226746,38.4902954 C97.832489,39.1998291 96.5166728,39.5545959 95.0752258,39.5545959 Z" id="Shape"></path>
            </g>
        </g>
    </g>
</svg>