<?xml version="1.0" encoding="UTF-8"?>
<svg width="136px" height="90px" viewBox="0 0 136 90" version="1.1" xmlns="http://www.w3.org/2000/svg" xmlns:xlink="http://www.w3.org/1999/xlink">
    <title>􀉫</title>
    <g id="Website" stroke="none" stroke-width="1" fill="none" fill-rule="evenodd">
        <g id="Home" transform="translate(-1125, -2138)" fill="#000000" fill-rule="nonzero">
            <g id="􀉫" transform="translate(1125.4512, 2138.208)">
                <path d="M61.2930298,89.0914917 C54.2714437,89.0914917 50.7606506,86.6925557 50.7606506,81.8946838 C50.7606506,78.7147522 51.7269135,75.3411611 53.6594391,71.7739105 C55.5919647,68.20666 58.3850861,64.8480733 62.0388031,61.6981506 C65.6925201,58.5482279 70.1094309,55.9820811 75.2895355,53.9997101 C80.4696401,52.0173391 86.3126119,51.0261536 92.8184509,51.0261536 C99.3359884,51.0261536 105.184937,52.0173391 110.365295,53.9997101 C115.545654,55.9820811 119.962565,58.5482279 123.616028,61.6981506 C127.269491,64.8480733 130.062612,68.20666 131.995392,71.7739105 C133.928172,75.3411611 134.894562,78.7147522 134.894562,81.8946838 C134.894562,86.6925557 131.372579,89.0914917 124.328613,89.0914917 L61.2930298,89.0914917 Z M59.7488403,83.4106445 L125.87204,83.4106445 C126.995087,83.4106445 127.776972,83.2539876 128.217697,82.9406738 C128.658422,82.62736 128.878784,82.0770264 128.878784,81.2896729 C128.878784,78.9637248 128.08342,76.3961792 126.492691,73.5870361 C124.901962,70.7778931 122.564061,68.0910746 119.478989,65.5265808 C116.393916,62.962087 112.614822,60.8537038 108.141708,59.2014313 C103.668594,57.5491587 98.5608419,56.7230225 92.8184509,56.7230225 C87.07606,56.7230225 81.9713593,57.5491587 77.5043488,59.2014313 C73.0373383,60.8537038 69.2611694,62.962087 66.1758423,65.5265808 C63.0905151,68.0910746 60.7526143,70.7778931 59.1621399,73.5870361 C57.5716654,76.3961792 56.7764282,78.9637248 56.7764282,81.2896729 C56.7764282,82.0770264 56.9967906,82.62736 57.4375153,82.9406738 C57.8782399,83.2539876 58.6486816,83.4106445 59.7488403,83.4106445 Z M92.8825378,44.3382263 C89.0907288,44.3382263 85.6433868,43.3410645 82.5405121,41.3467407 C79.4376373,39.352417 76.9699097,36.6577148 75.1373291,33.2626343 C73.3047485,29.8675537 72.3884583,26.1019389 72.3884583,21.9657898 C72.3884583,17.9344177 73.3125051,14.2567952 75.1605988,10.9329224 C77.0086924,7.60904948 79.4816335,4.95592753 82.579422,2.97355652 C85.6772105,0.991185506 89.1115824,0 92.8825378,0 C96.6657003,0 100.108719,0.979995728 103.211594,2.93998718 C106.314468,4.89997864 108.786901,7.53377279 110.628891,10.8413696 C112.470881,14.1489665 113.391876,17.8349813 113.391876,21.8994141 C113.391876,26.0574341 112.473043,29.8339844 110.635376,33.2290649 C108.797709,36.6241455 106.329981,39.3244425 103.232193,41.3299561 C100.134405,43.3354696 96.6845194,44.3382263 92.8825378,44.3382263 Z M92.8825378,38.6573792 C95.5579122,38.6573792 97.9914347,37.9142761 100.183105,36.4280701 C102.374776,34.941864 104.121526,32.9291026 105.423355,30.3897858 C106.725184,27.850469 107.376099,25.0203451 107.376099,21.8994141 C107.376099,18.8725789 106.725693,16.1305745 105.424881,13.6734009 C104.124069,11.2162272 102.375285,9.26984151 100.178528,7.83424377 C97.9817708,6.39864604 95.5497742,5.68084717 92.8825378,5.68084717 C90.2376811,5.68084717 87.8168742,6.40678406 85.6201172,7.85865784 C83.4233602,9.31053162 81.6689809,11.2679799 80.3569794,13.7310028 C79.0449778,16.1940257 78.3889771,18.9389547 78.3889771,21.9657898 C78.3889771,25.0867208 79.0454865,27.911377 80.3585052,30.4397583 C81.671524,32.9681396 83.4238688,34.9698385 85.6155396,36.4448547 C87.8072103,37.919871 90.2295431,38.6573792 92.8825378,38.6573792 Z M8.8508606,89.0914917 C5.90133667,89.0914917 3.68881226,88.4698232 2.21328735,87.2264862 C0.737762451,85.9831492 0,84.0866089 0,81.5368652 C0,77.6850382 0.914128621,73.9313761 2.74238586,70.2758789 C4.57064311,66.6203817 7.13437398,63.3359273 10.4335785,60.4225159 C13.732783,57.5091044 17.604955,55.1933289 22.0500946,53.4751892 C26.4952342,51.7570496 31.3346863,50.8979797 36.5684509,50.8979797 C39.4549052,50.8979797 42.2445933,51.1672974 44.9375153,51.7059326 C47.6304372,52.2445679 50.2081553,53.0443827 52.6706696,54.1053772 C55.1331838,55.1663717 57.4480693,56.4778646 59.6153259,58.039856 C58.7852478,58.6568197 58.0169678,59.2915853 57.3104858,59.9441528 C56.6040039,60.5967204 55.9534709,61.2932841 55.3588867,62.033844 C53.6198934,60.8029683 51.7566681,59.7782135 49.7692108,58.9595795 C47.7817535,58.1409454 45.682017,57.5228373 43.4700012,57.1052551 C41.2579854,56.6876729 38.9574687,56.4788818 36.5684509,56.4788818 C32.3900859,56.4788818 28.4388224,57.147344 24.7146606,58.4842682 C20.9904989,59.8211924 17.6935832,61.647288 14.8239136,63.9625549 C11.954244,66.2778219 9.70446269,68.9222972 8.0745697,71.8959808 C6.44467672,74.8696645 5.62973022,77.9881795 5.62973022,81.2515259 C5.62973022,82.0678711 5.81804911,82.6510111 6.19468689,83.000946 C6.57132467,83.3508809 7.20952352,83.5258484 8.10928345,83.5258484 L45.8206177,83.5258484 C45.8114624,84.6951803 46.1299896,85.7908885 46.7761993,86.812973 C47.4224091,87.8350576 48.2032776,88.5945638 49.1188049,89.0914917 L8.8508606,89.0914917 Z M36.6477966,44.9928284 C33.3463033,44.9928284 30.3504944,44.1177368 27.6603699,42.3675537 C24.9702454,40.6173706 22.8258769,38.2619222 21.2272644,35.3012085 C19.6286519,32.3404948 18.8293457,29.036204 18.8293457,25.3883362 C18.8293457,21.8676249 19.6338654,18.6487834 21.2429047,15.7318115 C22.851944,12.8148397 25.0039419,10.4872386 27.6988983,8.74900818 C30.3938548,7.01077779 33.3768209,6.1416626 36.6477966,6.1416626 C39.9309794,6.1416626 42.9227193,7.0051829 45.6230164,8.73222351 C48.3233134,10.4592641 50.4773458,12.7756755 52.0851135,15.6814575 C53.6928813,18.5872396 54.4967651,21.8007406 54.4967651,25.3219604 C54.4967651,28.9693197 53.6949158,32.2845459 52.091217,35.2676392 C50.4875183,38.2507324 48.3380636,40.6173706 45.6428528,42.3675537 C42.947642,44.1177368 39.94929,44.9928284 36.6477966,44.9928284 Z M36.6477966,39.3630981 C38.8898214,39.3630981 40.941747,38.7391408 42.8035736,37.4912262 C44.6654002,36.2433116 46.1470286,34.5612844 47.2484589,32.4451447 C48.3498891,30.3290049 48.9006042,27.9546102 48.9006042,25.3219604 C48.9006042,22.8057861 48.3478546,20.5225627 47.2423553,18.47229 C46.1368561,16.4220174 44.6586609,14.7900899 42.8077698,13.5765076 C40.9568787,12.3629252 38.9035543,11.756134 36.6477966,11.756134 C34.404246,11.756134 32.3595683,12.3710632 30.5137634,13.6009216 C28.6679586,14.83078 27.1973928,16.4763133 26.102066,18.5375214 C25.0067393,20.5987295 24.4590759,22.8823344 24.4590759,25.3883362 C24.4590759,27.999115 25.0072479,30.3625743 26.1035919,32.478714 C27.1999359,34.5948537 28.6708832,36.271286 30.5164337,37.5080109 C32.3619843,38.7447357 34.4057719,39.3630981 36.6477966,39.3630981 Z" id="Shape"></path>
            </g>
        </g>
    </g>
</svg>